<?xml version="1.0" encoding="UTF-8"?><svg version="1.1" width="251px" height="251px" viewBox="0 0 251.0 251.0" xmlns="http://www.w3.org/2000/svg" xmlns:xlink="http://www.w3.org/1999/xlink"><defs><clipPath id="i0"><path d="M251,0 L251,251 L0,251 L0,0 L251,0 Z"></path></clipPath><clipPath id="i1"><path d="M125.5,0 C194.811736,0 251,56.1882639 251,125.5 C251,194.811736 194.811736,251 125.5,251 C56.1882639,251 0,194.811736 0,125.5 C0,56.1882639 56.1882639,0 125.5,0 Z"></path></clipPath><clipPath id="i2"><path d="M177.956794,0 L177.956794,342.862268 L0,342.862268 L0,0 L177.956794,0 Z"></path></clipPath><clipPath id="i3"><path d="M162.380396,0.331383812 C172.554396,-1.43361619 176.014396,4.03038381 170.067396,12.4723838 L137.270396,59.0373838 L177.434396,290.576384 C180.748396,309.680384 167.949396,327.852384 148.843396,331.166384 L84.4323963,342.340384 C65.3243963,345.654384 47.1523963,332.854384 43.8383963,313.750384 L0.522396264,64.0403838 C-2.79160374,44.9363838 10.0073963,26.7633838 29.1143963,23.4483838 L93.5263963,12.2753838 C93.5823963,12.2653838 93.6363963,12.2653838 93.7483963,12.2463838 L93.7812713,12.2357588 C93.8011463,12.2298838 93.8278963,12.2228838 93.8553963,12.2183838 Z"></path></clipPath><clipPath id="i4"><path d="M15.8208355,6.6075177 C16.5728355,10.9445177 13.6678355,15.0705177 9.32983547,15.8225177 C4.99383547,16.5745177 0.870835472,13.6685177 0.118835472,9.3315177 C-0.634164528,4.9955177 2.26983547,0.8705177 6.60583547,0.1185177 C10.9428355,-0.6334823 15.0688355,2.2715177 15.8208355,6.6075177 Z"></path></clipPath><clipPath id="i5"><path d="M15.8205807,6.6075177 C16.5725807,10.9445177 13.6675807,15.0705177 9.32958067,15.8225177 C4.99458067,16.5745177 0.870580671,13.6685177 0.118580671,9.3315177 C-0.633419329,4.9955177 2.26958067,0.8705177 6.60558067,0.1185177 C10.9435807,-0.6334823 15.0685807,2.2715177 15.8205807,6.6075177 Z"></path></clipPath></defs><g clip-path="url(#i0)"><g clip-path="url(#i1)"><polygon points="0,0 251,0 251,251 0,251 0,0" stroke="none" fill="#FFFFFF"></polygon><g transform="translate(224.9567937287238 37.226200000000006) scale(-1.0 1.0)"><g clip-path="url(#i2)"><g transform="translate(0.0 -0.00048381199405866937)"><g clip-path="url(#i3)"><polygon points="3.55271368e-15,0.000483811994 177.956794,0.000483811994 177.956794,213.774284 3.55271368e-15,213.774284 3.55271368e-15,0.000483811994" stroke="none" fill="#0C9EC0"></polygon></g></g></g><g transform="translate(91.52816079224476 30.231882300229927)"><g clip-path="url(#i4)"><polygon points="1.95676808e-15,6.9388939e-17 15.9393508,6.9388939e-17 15.9393508,15.9410027 1.95676808e-15,15.9410027 1.95676808e-15,6.9388939e-17" stroke="none" fill="#FFFFFF"></polygon></g></g><g transform="translate(91.52831559347715 30.231682300229977)"><g clip-path="url(#i5)"><polygon points="-7.21644966e-16,-1.72084569e-15 15.939096,-1.72084569e-15 15.939096,15.9410027 -7.21644966e-16,15.9410027 -7.21644966e-16,-1.72084569e-15" stroke="none" fill="#FFFFFF"></polygon></g></g></g></g></g></svg>